<?xml version="1.0" encoding="utf-8"?>
<!-- Generator: Adobe Illustrator 19.0.0, SVG Export Plug-In . SVG Version: 6.00 Build 0)  -->
<svg version="1.1" id="Layer_1" xmlns="http://www.w3.org/2000/svg" xmlns:xlink="http://www.w3.org/1999/xlink" x="0px" y="0px"
	 viewBox="0 0 19 19" style="enable-background:new 0 0 19 19;" xml:space="preserve">
<style type="text/css">
	.st0{fill:#FFFFFF;}
</style>
<path id="XMLID_55_" class="st0" d="M3.9,16C4,15.9,4,15.9,3.9,16c-0.1-0.1-0.1-0.3-0.2-0.2c0-0.1-0.1-0.2-0.1-0.2c0,0,0,0,0,0
	c0.1-0.3-0.1-0.6-0.1-0.9c-0.1-0.5-0.2-1.1-0.4-1.6c0,0,0,0,0,0c0-0.1-0.1-0.1-0.1-0.1c0.1-0.2,0.1-0.4,0.2-0.5
	c0.1-0.1,0.1-0.1,0.1-0.2c0,0,0,0,0.1,0c0.1,0,0.1,0,0.2,0c0.8-0.3,1.6-0.7,2.4-1c0.1,0,0.1-0.1,0.1-0.1c0,0,0,0,0.1,0
	c0.1,0,0.2,0,0.3,0c0,0.1,0.2,0.1,0.3,0c0,0.1,0.1,0.2,0.2,0.2c0,0,0,0,0,0c0,0.1,0.1,0.2,0.2,0.3c0.3,0.4,0.6,0.7,0.9,1.1
	c0.1,0.1,0.2,0.1,0.3,0.1c1.1-0.5,2-1.2,2.8-2.1c0.6-0.6,1-1.3,1.4-2.1c0.1-0.2,0.1-0.2-0.1-0.3c-0.4-0.3-0.8-0.7-1.2-1
	C11.2,7,11.1,7,11.1,7c0-0.1,0-0.2-0.2-0.2c0.1-0.1,0-0.3-0.1-0.3c0,0,0.1,0,0.1-0.1c0-0.1,0-0.1,0-0.2c0,0,0-0.1,0-0.1
	C11,6.2,11,6.1,11,6c0.3-0.8,0.7-1.6,1-2.3c0-0.1,0-0.2,0.1-0.3c0.1,0,0.1-0.1,0.2-0.2c0.1-0.1,0.3-0.1,0.4-0.2
	C12.9,3,13,3.1,13.1,3.1c0.7,0.2,1.4,0.3,2.2,0.5c0,0,0.1,0,0.1,0c0.1,0,0.1,0,0.2,0c0,0,0.1,0,0.2,0.1c-0.1,0.1,0.1,0.2,0.1,0.3
	c0,0,0.1,0,0.1,0c0,0.1-0.1,0.2,0,0.3c0,0,0,0.1,0,0.1c-0.1,0.1-0.1,0.1-0.1,0.2c0,2,0,4,0,6c0,0.1,0,0.1,0,0.2c0-1.9,0-3.7,0-5.6
	c-0.3,2.9-1.4,5.3-3.4,7.4c-2,2-4.5,3.1-7.4,3.4c1.9,0,3.7,0,5.6,0c0,0,0,0,0,0c-0.4,0-0.7,0-1.1,0c-0.4,0-0.8,0-1.1,0
	c-0.4,0-0.8,0-1.1,0c-0.4,0-0.8,0-1.1,0c-0.4,0-0.8,0-1.1,0C4.7,15.9,4.3,16,3.9,16z"/>
</svg>
