<?xml version="1.0" encoding="utf-8"?>
<!-- Generator: Adobe Illustrator 19.0.0, SVG Export Plug-In . SVG Version: 6.00 Build 0)  -->
<svg version="1.1" id="Layer_1" xmlns="http://www.w3.org/2000/svg" xmlns:xlink="http://www.w3.org/1999/xlink" x="0px" y="0px"
	 viewBox="0 0 19 19" style="enable-background:new 0 0 19 19;" xml:space="preserve">
<style type="text/css">
	.st0{fill:#FFFFFF;}
</style>
<g id="XMLID_1_">
	<path id="XMLID_97_" class="st0" d="M14.3,2.1c0.2,0,0.3,0.1,0.5,0.1c0.6,0.2,1,0.7,1.1,1.3c0.1,0.5,0,1-0.3,1.4
		c-0.5,0.7-1,1.4-1.4,2.1c0,0,0,0,0,0c-0.1-0.1-0.3-0.2-0.4-0.3c0.1-0.2,0.3-0.4,0.4-0.6c0.4-0.6,0.8-1.1,1.2-1.7
		c0.4-0.7,0.1-1.6-0.7-1.8c-0.5-0.1-1.1,0-1.4,0.4c0,0-0.1,0.1-0.1,0.1c-0.1-0.1-0.3-0.2-0.4-0.3c0.3-0.5,0.7-0.7,1.3-0.8
		c0,0,0.1,0,0.1,0C14.1,2.1,14.2,2.1,14.3,2.1z"/>
	<path id="XMLID_92_" class="st0" d="M14.1,5.5c-0.2,0.3-0.3,0.5-0.5,0.7c0,0-0.1,0.1-0.1,0.1c-0.4,0.1-0.7,0.5-0.7,0.9
		c0,0.4,0.3,0.8,0.6,0.9c0.4,0.1,0.7,0.1,1-0.2c0.3-0.3,0.4-0.6,0.3-1c0-0.1,0-0.2,0-0.2C15,6.5,15.1,6.3,15.2,6
		c0.2,0.3,0.3,0.5,0.3,0.9c0,0.6,0,1.2-0.1,1.8c0,0.5,0,0.9-0.1,1.4c0,0.6-0.2,1.1-0.5,1.5c-0.2,0.4-0.6,0.6-0.9,0.9
		c-0.7,0.5-1.3,1.1-2,1.6c-0.6,0.5-1.2,1-1.8,1.5c-0.4,0.4-0.9,0.7-1.3,1.1c-0.5,0.4-1.3,0.3-1.7-0.2c-0.6-0.8-1.3-1.6-1.9-2.4
		c-0.6-0.7-1.1-1.4-1.7-2.1c-0.2-0.2-0.3-0.4-0.4-0.7c-0.1-0.5,0.1-0.9,0.5-1.3c0.8-0.6,1.5-1.2,2.3-1.9C6.6,7.6,7.3,7.1,8,6.5
		c0.4-0.3,0.8-0.7,1.2-1c0.4-0.3,0.9-0.5,1.5-0.5c0.3,0,0.7,0,1,0.1c0.5,0.1,1,0.2,1.6,0.2C13.5,5.4,13.8,5.4,14.1,5.5z M8.7,10.3
		c0-0.1,0-0.2,0-0.3C8.6,9.6,8.4,9.3,8,9.2c-0.4-0.1-0.8,0-1.1,0.3c-0.3,0.3-0.3,0.7-0.2,1.1c0.1,0.8,1,1.1,1.6,0.7
		C8.6,11.1,8.7,10.7,8.7,10.3z M11.4,11.9c0-0.1,0-0.2,0-0.3c-0.1-0.4-0.3-0.7-0.7-0.8c-0.4-0.1-0.8,0-1.1,0.3
		c-0.3,0.4-0.4,0.9-0.2,1.4c0.3,0.6,1.1,0.8,1.5,0.4C11.3,12.6,11.4,12.3,11.4,11.9z M7.7,13.1c0.1,0,0.2,0,0.3,0
		c0.1,0,0.2,0,0.2-0.1c0.6-1.1,1.3-2.3,1.9-3.4c0.1-0.1,0.1-0.2,0.2-0.4c-0.1,0-0.2,0-0.4,0c-0.1,0-0.1,0-0.2,0.1
		c-0.5,0.8-0.9,1.7-1.4,2.5C8.2,12.2,8,12.6,7.7,13.1z"/>
	<path id="XMLID_84_" class="st0" d="M8.1,10.4C8,10.5,8,10.7,8,10.8c0,0.1-0.1,0.2-0.3,0.2c-0.1,0-0.3-0.1-0.3-0.2
		c-0.2-0.3-0.1-0.7,0-1c0.1-0.1,0.2-0.2,0.3-0.2c0.1,0,0.2,0.1,0.3,0.2C8,10,8,10.2,8.1,10.4z"/>
	<path id="XMLID_83_" class="st0" d="M10,11.9c0-0.1,0-0.2,0.1-0.4c0.1-0.2,0.2-0.3,0.3-0.3c0.1,0,0.3,0.1,0.3,0.3
		c0.1,0.3,0.1,0.6,0,0.8c-0.1,0.2-0.2,0.2-0.3,0.3c-0.1,0-0.3-0.1-0.3-0.2c0,0,0-0.1,0-0.1C10,12.1,10,12,10,11.9z"/>
</g>
</svg>
