<?xml version="1.0" encoding="utf-8"?>
<!-- Generator: Adobe Illustrator 19.0.0, SVG Export Plug-In . SVG Version: 6.00 Build 0)  -->
<svg version="1.1" id="Layer_1" xmlns="http://www.w3.org/2000/svg" xmlns:xlink="http://www.w3.org/1999/xlink" x="0px" y="0px"
	 viewBox="0 0 19 19" style="enable-background:new 0 0 19 19;" xml:space="preserve">
<style type="text/css">
	.st0{fill:#FFFFFF;}
</style>
<path id="XMLID_78_" class="st0" d="M1.8,17.5c0,0,0-0.1,0-0.1c0-1,0.4-1.9,1-2.7c0.8-1,1.8-1.6,3-1.8c0.2,0,0.5-0.1,0.7-0.1
	c0.1,0,0.2,0,0.3,0c0.1,0,0.1,0,0.2,0c0,0,0.1,0,0.1,0c0.1,0,0.1,0.1,0.2,0.1c1.5,0.6,3.1,0.6,4.6,0c0.2-0.2,0.4-0.1,0.6-0.1
	c0.8,0,1.6,0.1,2.4,0.5c1.4,0.7,2.2,1.9,2.5,3.5c0,0.2,0,0.4,0.1,0.6c0,0,0,0.1,0,0.1c0,0.1,0,0.2-0.1,0.2c-0.1,0.3-0.3,0.5-0.5,0.7
	c-0.1,0-0.2,0.1-0.3,0.1c0,0-0.1,0-0.1,0c-0.1,0-0.2-0.1-0.4-0.1c-4.4,0-8.8,0-13.2,0c-0.1,0-0.2,0-0.3,0.1c0,0,0,0-0.1,0
	c-0.2-0.1-0.4-0.2-0.6-0.3C2,18.1,2,18,1.9,17.8C1.9,17.7,1.9,17.7,1.8,17.5z"/>
<path id="XMLID_77_" class="st0" d="M8.6,3.2c0.1-0.3,0.1-2,0-2.1c0-0.1,0.1-0.1,0.1-0.2c0-0.2,0.2-0.3,0.4-0.4c0.1,0,0.1,0,0.2-0.1
	c0.3,0.1,0.7,0.1,1,0c0.1,0,0.1,0.1,0.2,0.1c0.2,0.1,0.3,0.2,0.3,0.4c0,0.1,0,0.1,0.1,0.2c0,0.1,0,0.2,0,0.2c0,0.6,0,1.1,0,1.7
	c0,0.1,0,0.1,0,0.2c0,0,0,0,0,0C11,3.1,11,3.1,11,3c0.2-0.5,0.5-1,0.7-1.5c0-0.1,0-0.2,0-0.2c0,0,0-0.1,0.1-0.1c0,0,0.1,0,0.1,0
	c0.1,0.1,0.2,0.2,0.3,0.2c1.2,0.7,1.8,1.7,2,3.1c0,0,0,0,0,0c0,0.1,0,0.3,0.2,0.3c0.2-0.1,0.3-0.1,0.3,0.1c0,0.1,0.1,0.1,0.1,0.2
	c-0.2,0.3-0.1,0.6-0.1,1c0,0.1,0.1,0.2,0,0.3c-0.1,0.1-0.1,0.1-0.2,0.2c-0.1,0.1-0.2,0-0.3,0c0,0-0.1,0-0.1,0c-3,0-6,0-9,0
	c-0.1,0-0.1,0-0.2,0c-0.1,0-0.2,0-0.2-0.1c0,0-0.1,0-0.1-0.1c0-0.1-0.1-0.2-0.1-0.2c0.2-0.2,0.1-0.5,0.1-0.8c0-0.1,0-0.2,0-0.4
	c0,0,0.1-0.1,0.1-0.2C4.9,4.9,5,4.9,5.1,5c0.2-0.1,0.2-0.2,0.2-0.3c0.1-0.8,0.3-1.5,0.8-2.1c0.4-0.5,0.8-0.8,1.3-1.1
	c0.1,0,0.1-0.1,0.1-0.1c0,0,0.1-0.1,0.1,0c0,0,0,0.1,0.1,0.1c0,0.1,0,0.2,0.1,0.3C8.1,2.1,8.3,2.6,8.5,3C8.5,3.1,8.6,3.1,8.6,3.2z"
	/>
<path id="XMLID_76_" class="st0" d="M5.3,7.7c0.1,0,0.2,0,0.3,0.1c2.8,0,5.5,0,8.3,0c0.1,0,0.2,0,0.2,0c0,0,0.1,0,0.1,0
	c0,0,0,0.1,0,0.1c0,0.1-0.1,0.1-0.1,0.2c-0.3,1.4-1.1,2.5-2.3,3.2c-0.6,0.3-1.2,0.5-1.8,0.5c-0.1,0-0.1,0-0.2,0.1c0,0-0.1,0-0.1,0
	c-0.4-0.1-0.8-0.1-1.1-0.2C7,11.1,6,10.1,5.5,8.5c0-0.2-0.1-0.3-0.1-0.5c0-0.1-0.1-0.1-0.1-0.2C5.3,7.8,5.2,7.8,5.3,7.7
	C5.3,7.7,5.3,7.7,5.3,7.7z"/>
<path id="XMLID_75_" class="st0" d="M4,12.9c0.6,0,1.3,0,1.9,0c0,0,0,0,0,0C5.2,12.9,4.6,12.9,4,12.9C4,12.9,4,12.9,4,12.9z"/>
<path id="XMLID_74_" class="st0" d="M13.7,12.9c0.6,0,1.3,0,1.9,0c0,0,0,0,0,0C14.9,12.9,14.3,12.9,13.7,12.9
	C13.7,12.9,13.7,12.9,13.7,12.9z"/>
</svg>
