<?xml version="1.0" encoding="utf-8"?>
<!-- Generator: Adobe Illustrator 19.0.0, SVG Export Plug-In . SVG Version: 6.00 Build 0)  -->
<svg version="1.1" id="Layer_1" xmlns="http://www.w3.org/2000/svg" xmlns:xlink="http://www.w3.org/1999/xlink" x="0px" y="0px"
	 viewBox="0 0 19 19" style="enable-background:new 0 0 19 19;" xml:space="preserve">
<style type="text/css">
	.st0{fill:#FFFFFF;}
</style>
<path id="XMLID_62_" class="st0" d="M12.4,14.5c0-0.1-0.2-0.2-0.2-0.3c0-0.1-0.2-0.2,0-0.4c0.1-0.1,0-0.2,0-0.3
	c-0.1,0-0.1,0-0.2,0.1c-0.9,0.7-2,1.1-3.2,1.2c-0.2,0-0.5,0-0.7,0.1c0,0-0.1,0-0.1,0c-0.1,0-0.1,0-0.2,0c-0.1,0-0.2-0.1-0.2-0.1
	C6,14.8,4.5,14.2,3.2,13c-1-0.9-1.7-2.1-2.1-3.4C1.1,9.3,1.1,9,1,8.7c0,1,0,2,0,3.1c0,0,0,0,0,0c0-0.1,0-0.2,0-0.2
	c0-1.1,0-2.2,0-3.4c0-0.1,0-0.1-0.1-0.2c0,0,0-0.1,0-0.1C0.9,7.8,1,7.7,1,7.6c0-1.1,0-2.2,0-3.3C1,4.2,1,4.1,1,4c0,0,0,0,0,0
	c0,1,0,2,0,3.1c0.2-1.6,0.9-3,2-4.1c1.1-1.1,2.5-1.8,4.1-2c-1,0-2,0-3,0c0,0,0,0,0,0c0.1,0,0.1,0,0.2,0c1.1,0,2.3,0,3.4,0
	C7.9,1,8,1,8.2,1c1.1,0,2.3,0,3.4,0c0.1,0,0.1,0,0.2,0c0,0-0.1,0.1-0.1,0.1c-0.2,0-0.5,0-0.7,0C10.4,1,9.7,1,9,1C8.9,1,8.8,1,8.8,1
	c0,0,0,0,0,0c0.2,0,0.5,0.1,0.7,0.1c1.2,0.3,2.3,0.9,3.2,1.7c1,1,1.7,2.1,2,3.4c0.1,0.4,0.1,0.9,0.2,1.3c0,0.1,0,0.1,0.1,0.2
	c0,0,0,0.1,0,0.1c0,0.1-0.1,0.2-0.1,0.3c0,0.9-0.3,1.7-0.6,2.5c-0.2,0.4-0.4,0.9-0.7,1.2c0,0,0,0.1-0.1,0.1c0,0,0,0,0,0.1
	c0.1,0,0.3-0.1,0.4-0.1c0,0,0.1,0,0.1,0c0.1,0,0.2,0.1,0.3,0.1c0.1,0,0.2,0.1,0.3,0.1c0.1,0.1,0.1,0.2,0.2,0.3c1,1,1.9,1.9,2.9,2.9
	c0.1,0.1,0.2,0.1,0.3,0.2c0.2,0.4,0.2,0.8,0,1.3c-0.2,0-0.9,0.7-0.9,0.9c-0.4,0.2-0.9,0.2-1.2,0c-0.1-0.1-0.1-0.2-0.2-0.3
	c-0.9-1-1.9-1.9-2.9-2.8C12.6,14.7,12.5,14.6,12.4,14.5z M7.6,3.6C7,3.7,6.1,4,5.5,4.4C4.6,5.1,4,5.9,3.8,7c-0.1,0.3-0.2,0.6,0,0.9
	c0,0,0,0.1,0,0.1c0,0.1,0,0.1,0,0.2c0,0.2,0,0.4,0.1,0.6c0.4,1.9,2,3.2,3.9,3.4c0.1,0,0.1,0,0.2,0c0,0,0.1,0,0.1,0
	c0.1,0,0.1,0,0.2,0c0.2,0,0.4,0,0.6-0.1c0.8-0.2,1.5-0.5,2.1-1.1c0.8-0.8,1.3-1.7,1.3-2.9c0,0,0-0.1,0-0.1c0-0.1,0-0.1,0-0.2
	c0,0,0-0.1,0-0.1c-0.1-0.8-0.3-1.6-0.8-2.2C10.8,4.6,9.9,4,8.8,3.8C8.6,3.7,8.3,3.6,8,3.7c0,0-0.1,0-0.1,0C7.8,3.7,7.7,3.7,7.6,3.6z
	"/>
</svg>
