<?xml version="1.0" encoding="utf-8"?>
<!-- Generator: Adobe Illustrator 19.0.0, SVG Export Plug-In . SVG Version: 6.00 Build 0)  -->
<svg version="1.1" id="Layer_1" xmlns="http://www.w3.org/2000/svg" xmlns:xlink="http://www.w3.org/1999/xlink" x="0px" y="0px"
	 viewBox="0 0 19 19" style="enable-background:new 0 0 19 19;" xml:space="preserve">
<style type="text/css">
	.st0{fill:#FFFFFF;}
</style>
<path id="XMLID_61_" class="st0" d="M0.8,17.6c0-0.1-0.1-0.2-0.2-0.2c0.1-0.1,0.1-0.2,0-0.2c0,0,0-0.1,0-0.1c0-0.1,0.1-0.1,0.1-0.2
	c0-1.2,0-2.4,0-3.6c0-0.1,0-0.1-0.1-0.2c0,0,0-0.1,0-0.1c0.1-0.1,0.2-0.2,0.2-0.3c0,0,0.1-0.1,0.1-0.1c0.1,0,0.1,0,0.2-0.1
	c0,0,0.1,0,0.1,0c0.3,0.1,0.6,0,0.8,0.1c0.1-0.1,0.3,0.1,0.4,0c0,0.2,0.1,0.3,0.2,0.2c0,0.1,0,0.2,0.1,0.3c0,0,0,0,0,0.1
	c-0.1,0.3,0,0.5-0.1,0.8C2.7,14,2.7,14,2.8,14c0.7,0,1.3,0,2,0C4.9,14,5,14,5.1,13.8c0.4-1,0.7-2,1.1-3c0.1-0.2,0-0.2-0.1-0.3
	C4.6,10,3,9.3,1.5,8.7c0,0-0.1,0-0.2,0c0,0-0.1,0-0.1-0.1c-0.1,0-0.1-0.1-0.2-0.1C1,8.4,0.9,8.3,0.8,8.2c0,0-0.1-0.1-0.1-0.2
	c0,0,0-0.1,0-0.1c0-0.1,0-0.1,0-0.3c0.1-0.1,0.1-0.2,0-0.3c0-0.1,0.1-0.2,0.1-0.3c0,0,0-0.1,0-0.1C0.9,7,0.9,6.9,1,6.8
	c0.9-1.6,1.8-3.1,2.7-4.7c0-0.1,0-0.2,0.1-0.2C3.8,1.8,3.9,1.7,4,1.6c0.3-0.2,0.6-0.3,0.9-0.3c0,0,0.1,0,0.1,0c0,0,0.1,0,0.1,0
	c0.1,0,0.1,0.1,0.2,0.2C9.2,3.2,13,4.9,16.8,6.6c0.1,0,0.1,0,0.2,0c0.1,0,0.2,0.1,0.3,0.2c0.5,0.5,0.5,1.1,0.1,1.6
	c-0.1,0.1-0.3,0.1-0.4,0.2c-1.4,0.9-2.7,1.7-4.1,2.5c-0.5,0.3-1,0.6-1.5,0.9c-0.1,0-0.1,0.1-0.2,0.2c-0.1,0-0.2,0.1-0.3,0.1
	c-0.1,0-0.2-0.1-0.3,0c-0.1,0-0.2,0-0.3,0c0,0-0.1,0-0.1,0c-0.1,0-0.1-0.1-0.2-0.2C9.5,12,9,11.8,8.4,11.5c-0.2-0.1-0.3,0-0.3,0.1
	c-0.4,1.2-0.9,2.3-1.3,3.5c0,0.1,0,0.1,0,0.2c0,0,0,0.1-0.1,0.1c-0.1,0.1-0.1,0.1-0.2,0.2C6.4,15.9,6.2,16,6,16.1
	c-0.1,0-0.1,0.1-0.2,0.1c0,0-0.1,0-0.1,0c-0.1,0-0.2-0.1-0.3-0.1c-0.8,0-1.6,0-2.4,0c-0.2,0-0.3,0-0.3,0.3c0,0.2,0,0.3,0,0.5
	c0,0.1,0,0.1,0,0.2c0,0,0,0.1,0,0.1c0,0.1,0,0.2-0.1,0.3c-0.1,0-0.2,0.1-0.2,0.2c-0.1,0-0.2,0-0.3,0.1c0,0-0.1,0-0.1,0
	c-0.3-0.2-0.6,0-0.8-0.1C1.2,17.8,1,17.6,0.8,17.6z"/>
<path id="XMLID_60_" class="st0" d="M17.2,14c-0.1,0-0.2,0-0.3,0c-0.1,0-0.1,0-0.1-0.1c0,0-0.1-0.1-0.1-0.1c-1.1-0.5-2.3-1-3.4-1.5
	c0,0-0.1,0-0.2,0c0,0-0.1,0-0.1-0.1c0,0,0.1-0.1,0.1-0.1c0.1,0,0.2,0,0.2-0.1c1.3-0.8,2.6-1.6,4-2.5c0.1,0,0.1-0.1,0.1-0.2
	c0,0,0-0.1,0.1-0.1c0,0,0.1,0,0.1,0c0,0,0.1,0.1,0.1,0.1c0.2,0.1,0.5,0.2,0.7,0.3c0.1,0,0.1,0,0.2,0c0,0,0.1,0,0.1,0.1
	c0.1,0.1,0.1,0.2,0.2,0.2c0,0,0,0,0,0c0,0.2,0.1,0.4,0,0.5c-0.3,0.4-0.4,0.8-0.6,1.2c-0.2,0.5-0.5,1-0.7,1.5c0,0,0,0.1,0,0.1
	c0,0.1,0,0.2-0.1,0.2C17.5,13.9,17.4,14.1,17.2,14z"/>
</svg>
