<?xml version="1.0" encoding="utf-8"?>
<!-- Generator: Adobe Illustrator 19.0.0, SVG Export Plug-In . SVG Version: 6.00 Build 0)  -->
<svg version="1.1" id="Layer_1" xmlns="http://www.w3.org/2000/svg" xmlns:xlink="http://www.w3.org/1999/xlink" x="0px" y="0px"
	 viewBox="0 0 19 19" style="enable-background:new 0 0 19 19;" xml:space="preserve">
<style type="text/css">
	.st0{fill:#FFFFFF;}
</style>
<path id="XMLID_87_" class="st0" d="M2.7,3.9c-0.1-0.1-0.1-0.1,0-0.2c0-0.1,0-0.2,0-0.3c0,0.1,0,0.1,0,0.2C2.8,3.2,3.1,3.1,3.4,3
	c0,0,0.1,0,0.1,0c0.1,0,0.2,0.1,0.3,0.1c4.5,0,9,0,13.5,0c0.1,0,0.2,0,0.2-0.1c0,0,0.1,0,0.1,0c0.3,0.1,0.5,0.2,0.7,0.5
	c0,0.1,0.1,0.1,0.1,0.2c0,0,0,0.1,0,0.1c-0.1,0.1-0.1,0.1-0.1,0.2c0,3,0,6,0,8.9c0,0.1,0,0.2,0.1,0.2c0,0,0,0.1,0,0.1
	c-0.1,0.2-0.2,0.5-0.3,0.7c-0.2,0.4-0.6,0.6-1,0.7c-0.1,0-0.1,0-0.2,0.1c0,0-0.1,0-0.1,0c-0.1,0-0.2-0.1-0.3-0.1
	c-4.6,0-9.2,0-13.7,0c-0.1,0-0.2,0-0.3,0.1c0,0-0.1,0-0.1,0c-0.1,0-0.3-0.1-0.4-0.1c-0.7-0.2-1.1-0.7-1.2-1.5c0,0,0-0.1-0.1-0.1
	c0,0,0-0.1,0-0.1c0,0,0.1-0.1,0.1-0.1c0-2.6,0-5.2,0-7.8c0,0,0,0,0-0.1c0-0.1-0.1-0.1-0.1-0.2c0.1-0.2,0.2-0.5,0.5-0.6
	C1.3,4.1,1.3,4,1.4,4c0,0,0.1,0,0.1,0C1.6,4,1.7,4,1.8,4C2,4,2.2,4,2.4,4C2.5,4,2.6,4,2.7,3.9z M16,6.9C16,6.9,16,6.9,16,6.9
	c0.1,0,0.3-0.1,0.3-0.2c0-0.1,0-0.2,0-0.3c0-0.3,0.1-0.7-0.1-1c0,0,0,0,0-0.1c0-0.2-0.1-0.3-0.3-0.3c0,0-0.1,0-0.1,0
	C15.8,5,15.7,5,15.6,5C12.2,5,8.8,5,5.4,5C5.3,5,5.1,5,5,5.1c0,0-0.1,0-0.1,0C4.9,5,4.8,5.1,4.7,5.1c-0.1,0.1-0.1,0.1,0,0.2
	c0,0,0,0.1,0,0.1c0,0.1-0.1,0.1-0.1,0.2c0,0.2,0,0.3,0,0.5c0,0.2-0.1,0.3,0.1,0.5c0,0,0,0,0,0.1C4.7,6.8,4.8,6.9,5,6.9
	c0,0,0.1,0,0.1,0c0.1,0,0.1,0,0.2,0c3.5,0,6.9,0,10.4,0C15.8,6.9,15.9,6.9,16,6.9z M16.3,12.3C16.3,12.3,16.3,12.3,16.3,12.3
	c0-0.1,0-0.1,0-0.2c0-0.2-0.1-0.3-0.3-0.3c0,0-0.1,0-0.1,0c-0.1,0-0.1,0-0.2,0c-1.4,0-2.8,0-4.2,0c0,0-0.1,0-0.1,0
	c-0.1,0-0.1,0-0.2,0c-0.1,0-0.1,0-0.2,0.1c0,0-0.1,0.1-0.1,0.2c0,0.1,0,0.2,0,0.4c0,0.2,0.1,0.3,0.3,0.3c0,0,0.1,0,0.1,0
	c0.1,0,0.1,0,0.2,0c1.4,0,2.8,0,4.2,0c0,0,0.1,0,0.1,0c0,0,0.1,0,0.2,0c0.1,0,0.1,0,0.2-0.1c0,0,0.1-0.1,0.1-0.2
	C16.3,12.4,16.3,12.4,16.3,12.3z M10,12.3c0-0.1-0.1-0.2,0-0.2c0.1-0.1,0-0.2,0-0.2c-0.1-0.1-0.1-0.1-0.2,0c0,0-0.1,0-0.1,0
	c-0.1,0-0.1,0-0.2,0c-1.4,0-2.8,0-4.2,0c0,0-0.1,0-0.1,0c-0.1,0-0.1,0-0.2,0c-0.1,0-0.3,0.1-0.3,0.2c0.1,0.1,0,0.2,0,0.2
	c0,0.1,0,0.1,0,0.2c0,0,0,0.1,0,0.1c0.1,0.1,0.1,0.2,0.3,0.1c0,0,0.1,0,0.1,0c0.1,0,0.1,0,0.2,0c1.4,0,2.8,0,4.2,0c0,0,0.1,0,0.1,0
	c0.1,0,0.1,0,0.2,0c0.1,0,0.1,0,0.2-0.1c0,0,0.1-0.1,0.1-0.1C9.9,12.4,9.9,12.4,10,12.3z M16.3,9.4C16.3,9.4,16.3,9.4,16.3,9.4
	c0-0.1,0-0.1,0-0.2c0.1-0.1,0-0.2-0.1-0.2c-0.1-0.1-0.1-0.1-0.2,0c0,0-0.1,0-0.1,0c-0.1,0-0.2-0.1-0.2-0.1c-1.3,0-2.7,0-4,0
	c-0.1,0-0.2,0-0.3,0.1c0,0-0.1,0-0.1,0c-0.1,0-0.1,0-0.2,0C11,9,11,9.1,11,9.2c0,0.1,0,0.1,0,0.2c0,0.1,0,0.1,0,0.2
	c-0.1,0.1,0,0.2,0.1,0.2c0.1,0.1,0.1,0.1,0.2,0c0,0,0.1,0,0.1,0c0.1,0,0.2,0.1,0.2,0.1c1.3,0,2.7,0,4,0c0.1,0,0.2,0,0.3-0.1
	c0,0,0.1,0,0.1,0c0.1,0.1,0.1,0,0.2,0c0,0,0.1-0.1,0.1-0.2C16.3,9.5,16.3,9.4,16.3,9.4z M4.7,9.4c0,0.1,0,0.1,0,0.2
	c-0.1,0.1,0,0.1,0.1,0.2c0,0,0.1,0.1,0.2,0.1c0,0,0.1,0,0.1,0c0,0,0.1,0,0.1,0c1.4,0,2.8,0,4.2,0c0,0,0.1,0,0.1,0c0.1,0,0.1,0,0.2,0
	c0.1,0,0.1,0,0.2,0c0,0,0.1-0.1,0.1-0.2c0-0.1,0-0.1,0-0.2c0-0.1,0-0.1,0-0.2c0.1-0.1,0-0.2,0-0.2C9.8,9,9.8,8.9,9.7,9
	c0,0-0.1,0-0.1,0c0,0-0.1,0-0.1,0c-1.4,0-2.8,0-4.2,0c0,0-0.1,0-0.1,0c-0.1,0-0.1,0-0.2,0C4.9,9,4.8,9,4.8,9c0,0-0.1,0.1-0.1,0.2
	C4.7,9.3,4.7,9.3,4.7,9.4z M2.7,9.2c0-0.2,0-0.4,0-0.6c0-1,0-2,0-3c0-0.1,0-0.2-0.1-0.2c-0.2-0.1-0.4,0-0.4,0.2c0,2.3,0,4.6,0,6.9
	c0,0.2,0,0.4,0,0.5c0,0.2,0.2,0,0.3,0.1c0,0,0.1,0,0.1-0.1c0-0.1,0-0.3,0-0.4C2.7,11.6,2.7,10.4,2.7,9.2z"/>
</svg>
