<?xml version="1.0" encoding="utf-8"?>
<!-- Generator: Adobe Illustrator 19.0.0, SVG Export Plug-In . SVG Version: 6.00 Build 0)  -->
<svg version="1.1" id="Layer_1" xmlns="http://www.w3.org/2000/svg" xmlns:xlink="http://www.w3.org/1999/xlink" x="0px" y="0px"
	 viewBox="1362.5 145.5 500.5 501" style="enable-background:new 1362.5 145.5 500.5 501;" xml:space="preserve">
<path id="XMLID_28_" d="M1863,396.2c2.1,136-114.8,250.5-250.5,250.3c-135.9-0.3-250.1-115.2-250-250.7
	c0.1-136,115.2-250.5,251-250.3S1865.3,260.8,1863,396.2z M1618.7,418.1c-36.7,0.2-65.7,7.2-93.8,18.2c-15.6,6-30.7,12.8-43.5,23.9
	c-9,7.8-15.8,17.2-17.7,29.3c-0.5,2.9-0.3,6.6,1.2,8.9c13.5,20.1,30.2,37.2,50.5,50.6c77.9,51.4,185,31.6,242-44.1
	c6.5-8.7,6.7-16.2,2.3-24.7c-2.7-5.2-6-10.5-10.2-14.6c-5.8-5.6-12.2-11-19.3-14.9C1693.5,430.4,1654.4,418.8,1618.7,418.1z
	 M1688.2,296c-0.1-41-34.3-75.1-75.4-75c-41,0.1-75.1,34.3-75,75.4c0.1,41,34.4,75.2,75.4,75.1
	C1654.2,371.3,1688.3,337.1,1688.2,296z"/>
</svg>
