<?xml version="1.0" encoding="utf-8"?>
<!-- Generator: Adobe Illustrator 19.0.0, SVG Export Plug-In . SVG Version: 6.00 Build 0)  -->
<svg version="1.1" id="Layer_1" xmlns="http://www.w3.org/2000/svg" xmlns:xlink="http://www.w3.org/1999/xlink" x="0px" y="0px"
	 viewBox="1216.8 49.2 448.7 337.2" style="enable-background:new 1216.8 49.2 448.7 337.2;" xml:space="preserve">
<path d="M1440.9,386.2c-60.2,0-120.5-0.5-180.7,0.2c-23.6,0.3-43.5-21.4-43.3-43.1c0.7-84,0.3-168,0.3-252c0-23.6,18.5-42.1,42-42.1
	c121.5,0,243,0,364.5,0c23.5,0,42,18.6,42,42.2c0,84.3,0,168.6,0,252.9c0,23.2-18.6,41.9-41.8,41.9
	C1562.8,386.2,1501.9,386.2,1440.9,386.2z M1262.3,117.2c-0.2,1.1-0.3,1.4-0.3,1.7c0,67.1-0.1,134.2,0.1,201.3
	c0,12.5,6.6,19.3,19,20.8c2.1,0.2,4.2,0.3,6.3,0.3c102.7,0,205.3,0,308,0c3.1,0,6.3-0.2,9.4-0.7c8.2-1.3,13.5-6.4,15.2-14.4
	c0.6-3,0.9-6.2,0.9-9.3c0-64.9,0-129.7,0-194.6c0-1.4,0-2.8,0-4.3c-0.4-0.2-0.8-0.4-1.2-0.7c-1.1,1.3-2.1,2.8-3.3,4
	c-47.7,48.9-95.4,97.8-143.1,146.7c-16.1,16.5-36.9,16.8-53.6,0.7c-51.2-49.4-102.4-98.8-153.6-148.1
	C1264.9,119.5,1263.8,118.6,1262.3,117.2z M1296.2,94.4c1.4,1.6,2.3,2.7,3.3,3.7c42.1,42.2,84.2,84.4,126.4,126.6
	c12.2,12.2,27.8,12.3,40.1,0.1c42.8-42.2,85.5-84.4,128.2-126.6c1-1,1.9-2.1,3.4-3.7C1496.9,94.4,1397,94.4,1296.2,94.4z"/>
</svg>
