<?xml version="1.0" encoding="utf-8"?>
<!-- Generator: Adobe Illustrator 19.0.0, SVG Export Plug-In . SVG Version: 6.00 Build 0)  -->
<svg version="1.1" id="Layer_1" xmlns="http://www.w3.org/2000/svg" xmlns:xlink="http://www.w3.org/1999/xlink" x="0px" y="0px"
	 viewBox="735.7 181.6 500.3 487.2" style="enable-background:new 735.7 181.6 500.3 487.2;" xml:space="preserve">
<path d="M1036.6,545.2c6.7-1.6,13-3,19.2-4.7c22.4-6.3,43.1-16.1,59.8-32.8c24.1-24,32.9-53.8,31.7-87c-0.9-24.6-9.1-46.5-24.5-65.8
	c-1.3-1.6-1.8-4.6-1.2-6.6c5-19.5,3.8-38.6-2.6-57.6c-1.2-3.7-3.1-4.9-6.8-4.8c-14.7,0.2-28.2,4.7-41,11.4
	c-6.3,3.3-12.2,7.5-18.5,10.9c-2.1,1.1-5,1.8-7.2,1.3c-39.5-8.9-79-8.9-118.5,0c-2.2,0.5-5.3-0.2-7.2-1.5
	c-15.1-10.4-31.1-18.8-49.3-22c-15.6-2.8-16.9-2-20.7,13.3c-4,16.2-4.2,32.4,0.5,48.4c1.1,3.8,0.2,6.1-2.1,9
	c-36.4,46.1-30.1,118.2,13.5,155.9c19.6,16.9,42.9,25.9,67.8,31.2c1.5,0.3,2.9,0.6,4.4,1c0.3,0.1,0.5,0.4,0.9,0.8
	c-0.5,0.7-1,1.6-1.7,2.2c-7.3,8-12.4,17.2-15.8,27.6c-0.6,1.7-2.8,4-4.5,4.2c-9.4,0.7-18.9,1.8-28.2,1c-11.5-1-20.1-7.6-27.1-17
	c-6.8-9-14.1-17.7-22.2-25.6c-7.6-7.4-17.1-11.1-28-7.5c-2,0.7-4.9,2.5-5,3.9c-0.1,2,1.6,4.6,3.3,6c4.1,3.4,8.7,6.2,12.9,9.4
	c6.9,5.2,12,11.6,14.8,20.1c9.4,28.5,27.7,42,57.9,43.3c7.5,0.3,14.9,0,23,0c0.1,1.2,0.2,3,0.2,4.7c0,13.7,0,27.3,0.1,41
	c0,8.9-3.5,11.8-11.9,8.7c-10.3-3.9-20.6-7.8-30.3-13c-75.9-40.7-121.7-103.5-134.1-188.8c-19.2-132.3,71.8-257,203.1-280.2
	c133.4-23.6,260.6,61.8,289.2,194.4c26.2,121.4-43.1,245.8-160.1,287.3c-1.4,0.5-2.8,1.1-4.3,1.3c-4.7,0.9-7.8-1.1-8.6-5.9
	c-0.4-2.3-0.4-4.6-0.4-7c0-18.7-0.2-37.3,0-56c0.3-19.9-5.6-37.4-19-52.2C1037.7,546.9,1037.3,546.2,1036.6,545.2z"/>
</svg>
