<?xml version="1.0" encoding="utf-8"?>
<!-- Generator: Adobe Illustrator 19.0.0, SVG Export Plug-In . SVG Version: 6.00 Build 0)  -->
<svg version="1.1" id="Layer_1" xmlns="http://www.w3.org/2000/svg" xmlns:xlink="http://www.w3.org/1999/xlink" x="0px" y="0px"
	 viewBox="1333 176.3 498.7 426.3" style="enable-background:new 1333 176.3 498.7 426.3;" xml:space="preserve">
<path d="M1407,401.9c-25.1,0-49.2,0-73.3,0c-0.2-0.4-0.5-0.8-0.7-1.1c82.8-74.8,165.7-149.5,248.8-224.6
	c83.1,75,165.9,149.8,249.9,225.5c-25.7,0-49.9,0-74.7,0c0,67.1,0,133.7,0,200.7c-41.7,0-82.7,0-124.5,0c0-49.6,0-99.5,0-149.7
	c-34,0-67.2,0-101.1,0c0,50,0,99.8,0,149.8c-41.6,0-82.7,0-124.4,0C1407,535.8,1407,469.2,1407,401.9z"/>
</svg>
