<?xml version="1.0" encoding="utf-8"?>
<!-- Generator: Adobe Illustrator 19.0.0, SVG Export Plug-In . SVG Version: 6.00 Build 0)  -->
<svg version="1.1" id="Layer_1" xmlns="http://www.w3.org/2000/svg" xmlns:xlink="http://www.w3.org/1999/xlink" x="0px" y="0px"
	 viewBox="0 0 346.2 316.1" style="enable-background:new 0 0 346.2 316.1;" xml:space="preserve">
<style type="text/css">
	.st0{fill:none;}
</style>
<path id="XMLID_39_" d="M8.9,150.1c-0.3,21.4,7.6,37.4,25.2,47.9c25.1,14.9,57.9,5,70.7-21.2c1.5-3,3-4.3,6.6-4.6
	c32.9-2.4,54.6-36.9,42.9-67.9c-9.3-24.5-7.3-47.7,7.4-69.5C178,10.8,208-1.1,236.2,5.2c4.8,1.1,8.9,0.5,13.5-1
	c28-9,53.3-3.8,74.3,16.8c21.2,20.9,27.5,46.7,17.9,74.9c-9.4,27.7-29.6,44.1-58.7,48.5c-20.1,3.1-38.3-2.3-54.5-14.5
	c-1.1-0.8-2.1-1.6-3.2-2.4c-0.2-0.1-0.6,0-0.9,0c39.2,63.2,13.7,133.5-31.4,165.7c-46.9,33.4-111.4,29.8-153.9-9.4
	C-3.9,244.1-7.2,185.8,8.9,150.1z M206,34.8c-5.8,0-11.8,0-17.1,0c0,5.8,0,11.8,0,17c5.8,0,11.8,0,17.1,0C206,46,206,40.3,206,34.8z
	"/>
<path id="XMLID_53_" class="st0" d="M182.6,22.6h-5.7v5.8c3.1,0,5.9,0.9,8.3,2.5C183.6,28.5,182.6,25.7,182.6,22.6z"/>
<path id="XMLID_54_" class="st0" d="M189.2,34.9c1.6,2.4,2.5,5.2,2.5,8.3c0,3.4-1.1,6.4-3,8.9c2.5-1.8,5.5-2.9,8.7-2.9
	c3.7,0,7.1,1.4,9.7,3.7c-2.3-2.6-3.6-6-3.6-9.7c0-3.3,1.1-6.4,3-8.9c-2.5,2-5.7,3.1-9.1,3.1C194.4,37.4,191.6,36.5,189.2,34.9z"/>
<path id="XMLID_55_" class="st0" d="M218.4,28.4v-5.8h-6.1c0,3.3-1.1,6.4-3,8.9C211.8,29.5,215,28.4,218.4,28.4z"/>
<path id="XMLID_56_" class="st0" d="M176.9,58v6.1h5.7c0-3.4,1.1-6.4,3-8.9C183.2,57,180.2,58,176.9,58z"/>
<path id="XMLID_57_" class="st0" d="M212.3,64.1h6.1V58c-3.7,0-7.1-1.4-9.7-3.7C210.9,57,212.3,60.4,212.3,64.1z"/>
<path id="XMLID_61_" d="M208.7,54.4c-0.4-0.5-0.9-1-1.4-1.4C207.7,53.4,208.1,53.9,208.7,54.4z"/>
<path id="XMLID_62_" d="M185.6,55.2c1.2-0.9,2.2-1.9,3.1-3C187.6,53,186.5,54,185.6,55.2z"/>
<g id="XMLID_43_">
	<path id="XMLID_58_" d="M209.3,31.5c-0.8,1.1-1.7,2-2.8,2.8c-1.9,2.5-3,5.6-3,8.9c0,3.7,1.4,7.1,3.6,9.7c0.5,0.4,1,0.9,1.4,1.4
		c2.6,2.3,6,3.7,9.7,3.7V28.4C215,28.4,211.8,29.5,209.3,31.5z"/>
	<path id="XMLID_59_" d="M188.7,52.1c1.9-2.5,3-5.6,3-8.9c0-3.1-0.9-5.9-2.5-8.3c-1.6-1.1-2.9-2.4-4-4c-2.4-1.6-5.2-2.5-8.3-2.5V58
		c3.3,0,6.3-1.1,8.7-2.9C186.5,54,187.6,53,188.7,52.1z"/>
	<path id="XMLID_60_" d="M207.2,52.9c-2.6-2.3-6-3.7-9.7-3.7c-3.3,0-6.3,1.1-8.7,2.9c-0.9,1.2-1.9,2.2-3.1,3c-1.9,2.5-3,5.6-3,8.9
		h29.7c0-3.7-1.4-7.1-3.6-9.7C208.1,53.9,207.7,53.4,207.2,52.9z"/>
	<path id="XMLID_63_" d="M189.2,34.9c2.4,1.6,5.2,2.5,8.3,2.5c3.4,0,6.6-1.2,9.1-3.1c0.8-1.1,1.7-2,2.8-2.8c1.9-2.5,3-5.6,3-8.9
		h-29.7c0,3.1,0.9,5.9,2.5,8.3C186.8,32,188.1,33.3,189.2,34.9z"/>
</g>
<path id="XMLID_64_" d="M206.6,34.3c1-0.8,2-1.8,2.8-2.8C208.3,32.3,207.4,33.2,206.6,34.3z"/>
<path id="XMLID_65_" d="M185.2,30.9c1.1,1.6,2.4,2.9,4,4C188.1,33.3,186.8,32,185.2,30.9z"/>
</svg>
