<?xml version="1.0" encoding="utf-8"?>
<!-- Generator: Adobe Illustrator 19.0.0, SVG Export Plug-In . SVG Version: 6.00 Build 0)  -->
<svg version="1.1" id="Layer_1" xmlns="http://www.w3.org/2000/svg" xmlns:xlink="http://www.w3.org/1999/xlink" x="0px" y="0px"
	 viewBox="-55 146.7 500.6 500.3" style="enable-background:new -55 146.7 500.6 500.3;" xml:space="preserve">
<g id="XMLID_2_">
	<path id="XMLID_60_" d="M195.7,382.8c0-44-0.1-87.9,0-131.8c0-5.2,0.3-10.4,0.8-15.6c1.1-12.1,8-20.1,18.8-24.6
		c10.5-4.4,20.7-3.2,29.9,3.9c4.3,3.4,8.5,7.1,12.7,10.6c55.7,46.4,111.4,92.7,167,139.1c5.6,4.6,11.4,9.2,15.7,14.8
		c10,12.9,7.2,30.7-6.4,42.3c-18,15.3-36.2,30.4-54.4,45.5c-33.9,28.3-67.9,56.5-101.9,84.8c-10.7,8.9-21.3,18-32.3,26.6
		c-13.3,10.4-30.3,8.8-41.7-3.2c-6.8-7.2-8.3-16.2-8.3-25.6c0-50.8,0-101.7,0-152.5C195.6,392.4,195.6,387.6,195.7,382.8z"/>
	<path id="XMLID_59_" d="M-55.9,239.4c0-2.5,0.1-5,0.7-7.3c6.3-23,31.4-31.2,49.9-16.1c24.4,19.9,48.4,40.2,72.6,60.3
		c34,28.3,68,56.5,101.9,84.9c6.7,5.6,14,10.9,19.2,17.7c10.8,14.2,7.3,31.8-7.4,44c-10.2,8.5-20.4,16.9-30.5,25.3
		c-51.7,43-103.3,86-155,129c-10.4,8.6-21.9,10.8-34.3,4.9c-12-5.8-17.2-15.9-17.2-29.1c0-52,0-104.1,0-156.1
		C-56,344.4-56.1,291.9-55.9,239.4z"/>
</g>
</svg>
