<?xml version="1.0" encoding="utf-8"?>
<!-- Generator: Adobe Illustrator 19.0.0, SVG Export Plug-In . SVG Version: 6.00 Build 0)  -->
<svg version="1.1" id="Layer_1" xmlns="http://www.w3.org/2000/svg" xmlns:xlink="http://www.w3.org/1999/xlink" x="0px" y="0px"
	 viewBox="-55 146.7 500.6 500.3" style="enable-background:new -55 146.7 500.6 500.3;" xml:space="preserve">
<g>
	<path d="M230.6,396.7c0-62.8-0.1-125.6,0.1-188.5c0.1-23.4,14.9-42.3,37.4-48.3c3.7-1,7.5-1.6,11.3-1.6c35.2-0.1,70.3-0.2,105.5,0
		c26.1,0.1,48.9,22.8,48.9,49c0.1,126.3,0.1,252.6,0,378.9c0,25.8-22.7,48.8-48.5,49.1c-35.3,0.3-70.7,0.3-106,0
		c-26.1-0.2-48.5-22.4-48.6-48.7C230.5,523.3,230.6,460,230.6,396.7C230.6,396.7,230.6,396.7,230.6,396.7z"/>
	<path d="M160,396.6c0,63.2,0.1,126.3-0.1,189.5c-0.1,23-15.9,42.4-38.2,47.7c-4.2,1-8.5,1.5-12.8,1.6c-33,0.1-66,0.1-99,0.1
		c-27.7,0-47.8-16.7-52.8-44.1c-0.4-1.9-0.3-4-0.3-6c0-125.6-0.1-251.3,0-376.9c0-27.5,22.4-50,49.9-50.1c34.7-0.1,69.3-0.1,104,0
		c26.9,0.1,49.2,21.9,49.3,48.8C160.1,270.3,160,333.4,160,396.6z"/>
</g>
</svg>
