<?xml version="1.0" encoding="utf-8"?>
<!-- Generator: Adobe Illustrator 19.0.0, SVG Export Plug-In . SVG Version: 6.00 Build 0)  -->
<svg version="1.1" id="Layer_1" xmlns="http://www.w3.org/2000/svg" xmlns:xlink="http://www.w3.org/1999/xlink" x="0px" y="0px"
	 viewBox="576.7 66.6 500.6 500.3" style="enable-background:new 576.7 66.6 500.6 500.3;" xml:space="preserve">
<path d="M956,566.9c-16.1,0.1-31.6-3-46.6-8.2c-33-11.5-66.4-22.2-97.1-39.5c-35.4-20-66.4-45.6-95.5-73.8
	c-33.5-32.4-64.5-67-88.3-107.4c-7.2-12.1-13.9-24.8-19-37.9c-9.9-25.4-19.4-51.1-27.5-77.1c-9.1-29.4-6.3-58.6,5.8-86.9
	c6.7-15.7,15.4-30.3,26.3-43.4c7.2-8.7,15.9-15.4,27-17.9c12.8-2.9,25.7-5.5,38.6-7.9c8-1.4,13.9,2.1,17.9,9
	c5.5,9.5,10.8,19.2,16.3,28.6c12.8,21.8,25.6,43.6,38.5,65.4c0.9,1.6,1.8,3.2,2.8,4.7c5.4,9,5,17.7-2.2,25.2
	c-7.6,7.9-15.7,15.3-23.9,22.7c-7.8,7-16.3,13.3-23.9,20.4c-12.4,11.7-13.9,18-5.2,32.5c13.5,22.4,26.9,44.9,42.4,65.9
	c28,38.2,64.4,67.2,105.4,90.6c9,5.1,18,10.1,27.1,14.9c8,4.2,15.4,2.6,21.4-3.8c7.9-8.4,15.3-17.1,23-25.7
	c7.6-8.4,14.7-17.2,22.9-25c10-9.5,17.3-10.4,28.8-2.6c28.7,19.5,59.6,35.4,90,51.8c13,7,18.9,16,15.1,30.6c-3,11.6-5,23.5-8.8,34.8
	c-2.2,6.4-6.2,12.9-11.1,17.4C1028,550.6,994.9,565.8,956,566.9z"/>
</svg>
