<?xml version="1.0" encoding="utf-8"?>
<!-- Generator: Adobe Illustrator 19.0.0, SVG Export Plug-In . SVG Version: 6.00 Build 0)  -->
<svg version="1.1" id="Layer_1" xmlns="http://www.w3.org/2000/svg" xmlns:xlink="http://www.w3.org/1999/xlink" x="0px" y="0px"
	 viewBox="0 0 500.6 500.3" style="enable-background:new 0 0 500.6 500.3;" xml:space="preserve">
<path id="XMLID_55_" d="M30,250.7c0-68.5,0-136.9,0-205.4c0-10.2,2.4-19.7,8.5-28.2C51.2-0.4,76.8-7.2,96.3,2.9
	c15.9,8.3,31.2,17.9,46.7,27.1c74.4,43.9,148.9,87.8,223.3,131.8c26.9,15.9,53.8,31.6,80.6,47.7c26.2,15.7,31.7,48.6,11.8,71.9
	c-3.7,4.3-8.8,7.7-13.8,10.6c-53,31.5-106.2,62.8-159.2,94.2c-58.4,34.5-116.7,69.1-175.2,103.5c-8,4.7-16.5,9.5-25.4,11.5
	c-27.9,6.3-55-16.4-55-45C29.9,387.7,30,319.2,30,250.7z"/>
</svg>
