<?xml version="1.0" encoding="utf-8"?>
<!-- Generator: Adobe Illustrator 19.0.0, SVG Export Plug-In . SVG Version: 6.00 Build 0)  -->
<svg version="1.1" id="Layer_1" xmlns="http://www.w3.org/2000/svg" xmlns:xlink="http://www.w3.org/1999/xlink" x="0px" y="0px"
	 viewBox="0 0 500.6 500.3" style="enable-background:new 0 0 500.6 500.3;" xml:space="preserve">
<g id="XMLID_2_">
	<path id="XMLID_60_" d="M250,250.4c0,50.8,0,101.7,0,152.5c0,9.4-1.5,18.4-8.3,25.6c-11.4,12-28.4,13.6-41.7,3.2
		c-11-8.6-21.6-17.7-32.3-26.6c-34-28.3-68-56.5-101.9-84.8c-18.2-15.1-36.4-30.2-54.4-45.5c-13.6-11.6-16.4-29.4-6.4-42.3
		c4.3-5.6,10.1-10.2,15.7-14.8C76.3,171.3,132,125,187.7,78.6c4.2-3.5,8.4-7.2,12.7-10.6c9.2-7.1,19.4-8.3,29.9-3.9
		c10.8,4.5,17.7,12.5,18.8,24.6c0.5,5.2,0.8,10.4,0.8,15.6c0.1,43.9,0,87.8,0,131.8C250,240.9,250,245.7,250,250.4z"/>
	<path id="XMLID_59_" d="M501.6,250.2c0,52,0,104.1,0,156.1c0,13.2-5.2,23.3-17.2,29.1c-12.4,5.9-23.9,3.7-34.3-4.9
		c-51.7-43-103.3-86-155-129c-10.1-8.4-20.3-16.8-30.5-25.3c-14.7-12.2-18.2-29.8-7.4-44c5.2-6.8,12.5-12.1,19.2-17.7
		c33.9-28.4,67.9-56.6,101.9-84.9c24.2-20.1,48.2-40.4,72.6-60.3c18.5-15.1,43.6-6.9,49.9,16.1c0.6,2.3,0.7,4.8,0.7,7.3
		C501.7,145.2,501.6,197.7,501.6,250.2z"/>
</g>
</svg>
